<mxfile host="65bd71144e">
    <diagram id="WiAvk2CFmx-7B1jgrcfD" name="Page-1">
        <mxGraphModel dx="714" dy="263" grid="0" gridSize="10" guides="1" tooltips="1" connect="1" arrows="1" fold="1" page="1" pageScale="1" pageWidth="827" pageHeight="1169" math="0" shadow="0">
            <root>
                <mxCell id="0"/>
                <mxCell id="1" parent="0"/>
                <object label="products&lt;br&gt;&lt;br&gt;&lt;div style=&quot;text-align: left&quot;&gt;&lt;span&gt;id &lt;/span&gt;&lt;span style=&quot;font-weight: normal&quot;&gt;INT PK&amp;nbsp;&lt;/span&gt;&lt;/div&gt;&lt;div style=&quot;text-align: left&quot;&gt;&lt;span&gt;name &lt;/span&gt;&lt;span style=&quot;font-weight: normal&quot;&gt;VARCHAR(100)&lt;/span&gt;&lt;/div&gt;&lt;div style=&quot;text-align: left&quot;&gt;&lt;span&gt;description&lt;/span&gt;&lt;span style=&quot;font-weight: normal&quot;&gt;&amp;nbsp;TEXT&lt;/span&gt;&lt;/div&gt;&lt;div style=&quot;text-align: left&quot;&gt;&lt;span&gt;price&lt;/span&gt;&lt;span style=&quot;font-weight: normal&quot;&gt;&amp;nbsp;INT&lt;/span&gt;&lt;/div&gt;&lt;div style=&quot;text-align: left&quot;&gt;&lt;span&gt;img &lt;/span&gt;&lt;span style=&quot;font-weight: normal&quot;&gt;VARCHAR(100)&lt;/span&gt;&lt;/div&gt;&lt;div style=&quot;text-align: left&quot;&gt;&lt;u&gt;id_category&lt;/u&gt; &lt;span style=&quot;font-weight: normal&quot;&gt;INT FK&lt;/span&gt;&lt;/div&gt;" id="2">
                    <mxCell style="rounded=0;whiteSpace=wrap;html=1;fontStyle=1" parent="1" vertex="1">
                        <mxGeometry x="80" y="40" width="140" height="140" as="geometry"/>
                    </mxCell>
                </object>
                <object label="category_products&lt;br&gt;&lt;br&gt;&lt;div style=&quot;text-align: left&quot;&gt;&lt;span&gt;id &lt;/span&gt;&lt;span style=&quot;font-weight: normal&quot;&gt;INT&amp;nbsp;&lt;/span&gt;&lt;/div&gt;&lt;div style=&quot;text-align: left&quot;&gt;&lt;span&gt;name &lt;/span&gt;&lt;span style=&quot;font-weight: normal&quot;&gt;VARCHAR(100)&lt;/span&gt;&lt;/div&gt;&lt;div style=&quot;text-align: left&quot;&gt;&lt;br&gt;&lt;/div&gt;" id="3">
                    <mxCell style="rounded=0;whiteSpace=wrap;html=1;fontStyle=1" parent="1" vertex="1">
                        <mxGeometry x="350" y="60" width="140" height="100" as="geometry"/>
                    </mxCell>
                </object>
                <mxCell id="4" value="" style="endArrow=ERoneToMany;html=1;exitX=0;exitY=0.5;exitDx=0;exitDy=0;entryX=1.001;entryY=0.866;entryDx=0;entryDy=0;endFill=0;entryPerimeter=0;" parent="1" source="3" target="2" edge="1">
                    <mxGeometry width="50" height="50" relative="1" as="geometry">
                        <mxPoint x="330" y="130" as="sourcePoint"/>
                        <mxPoint x="280" y="180" as="targetPoint"/>
                    </mxGeometry>
                </mxCell>
                <object label="users&lt;br&gt;&lt;br&gt;&lt;div style=&quot;text-align: left&quot;&gt;&lt;span&gt;idUsers&amp;nbsp;&lt;/span&gt;&lt;span style=&quot;font-weight: normal&quot;&gt;INT PK&lt;/span&gt;&lt;/div&gt;&lt;div style=&quot;text-align: left&quot;&gt;&lt;span&gt;name &lt;/span&gt;&lt;span style=&quot;font-weight: normal&quot;&gt;VARCHAR(100)&lt;/span&gt;&lt;/div&gt;&lt;div style=&quot;text-align: left&quot;&gt;&lt;span&gt;surname&amp;nbsp;&lt;span style=&quot;font-weight: 400&quot;&gt;VARCHAR(&lt;/span&gt;&lt;/span&gt;&lt;span style=&quot;font-weight: 400&quot;&gt;100&lt;/span&gt;&lt;span&gt;&lt;span style=&quot;font-weight: 400&quot;&gt;)&lt;/span&gt;&lt;/span&gt;&lt;/div&gt;&lt;div style=&quot;text-align: left&quot;&gt;email&lt;span style=&quot;font-weight: normal&quot;&gt;&amp;nbsp;VARCHAR(&lt;/span&gt;&lt;span style=&quot;font-weight: 400&quot;&gt;100&lt;/span&gt;&lt;span style=&quot;font-weight: normal&quot;&gt;)&lt;/span&gt;&lt;/div&gt;&lt;div style=&quot;text-align: left&quot;&gt;password&lt;span style=&quot;font-weight: normal&quot;&gt; VARCHAR(&lt;/span&gt;&lt;span style=&quot;font-weight: 400&quot;&gt;100&lt;/span&gt;&lt;span style=&quot;font-weight: normal&quot;&gt;)&lt;/span&gt;&lt;/div&gt;&lt;div style=&quot;text-align: left&quot;&gt;phone&amp;nbsp;&lt;span style=&quot;font-weight: normal&quot;&gt;INT(10)&lt;/span&gt;&lt;/div&gt;&lt;div style=&quot;text-align: left&quot;&gt;&lt;span&gt;avatar&amp;nbsp;&lt;/span&gt;&lt;span style=&quot;font-weight: normal&quot;&gt;VARCHAR(&lt;/span&gt;&lt;span style=&quot;font-weight: 400&quot;&gt;100&lt;/span&gt;&lt;span style=&quot;font-weight: normal&quot;&gt;)&lt;/span&gt;&lt;/div&gt;&lt;div style=&quot;text-align: left&quot;&gt;&lt;u&gt;id_city&lt;/u&gt; &lt;span style=&quot;font-weight: normal&quot;&gt;INT FK&lt;/span&gt;&lt;/div&gt;&lt;div style=&quot;text-align: left&quot;&gt;&lt;u&gt;id_province&lt;/u&gt;&amp;nbsp;&lt;span style=&quot;font-weight: normal&quot;&gt;INT FK&lt;/span&gt;&lt;span style=&quot;font-weight: normal&quot;&gt;&lt;br&gt;&lt;/span&gt;&lt;/div&gt;&lt;div style=&quot;text-align: left&quot;&gt;&lt;u&gt;id_rol&lt;/u&gt;&amp;nbsp;&lt;span style=&quot;font-weight: normal&quot;&gt;INT FK&lt;/span&gt;&lt;span style=&quot;font-weight: normal&quot;&gt;&lt;br&gt;&lt;/span&gt;&lt;/div&gt;" id="5">
                    <mxCell style="rounded=0;whiteSpace=wrap;html=1;fontStyle=1" parent="1" vertex="1">
                        <mxGeometry x="80" y="433" width="160" height="200" as="geometry"/>
                    </mxCell>
                </object>
                <object label="city&lt;br&gt;&lt;br&gt;&lt;div style=&quot;text-align: left&quot;&gt;&lt;span&gt;idCity&amp;nbsp;&lt;/span&gt;&lt;span style=&quot;font-weight: normal&quot;&gt;INT PK&lt;/span&gt;&lt;/div&gt;&lt;div style=&quot;text-align: left&quot;&gt;&lt;span&gt;name &lt;/span&gt;&lt;span style=&quot;font-weight: normal&quot;&gt;VARCHAR(45)&lt;/span&gt;&lt;/div&gt;&lt;div style=&quot;text-align: left&quot;&gt;&lt;br&gt;&lt;/div&gt;" id="6">
                    <mxCell style="rounded=0;whiteSpace=wrap;html=1;fontStyle=1" parent="1" vertex="1">
                        <mxGeometry x="350" y="453" width="140" height="100" as="geometry"/>
                    </mxCell>
                </object>
                <mxCell id="7" value="" style="endArrow=ERoneToMany;html=1;exitX=0;exitY=0.5;exitDx=0;exitDy=0;entryX=1;entryY=0.75;entryDx=0;entryDy=0;endFill=0;" parent="1" source="6" target="5" edge="1">
                    <mxGeometry width="50" height="50" relative="1" as="geometry">
                        <mxPoint x="330" y="523" as="sourcePoint"/>
                        <mxPoint x="280" y="573" as="targetPoint"/>
                    </mxGeometry>
                </mxCell>
                <object label="province&lt;br&gt;&lt;br&gt;&lt;div style=&quot;text-align: left&quot;&gt;&lt;span&gt;idProvince&amp;nbsp;&lt;/span&gt;&lt;span style=&quot;font-weight: normal&quot;&gt;INT PK&lt;/span&gt;&lt;/div&gt;&lt;div style=&quot;text-align: left&quot;&gt;&lt;span&gt;name &lt;/span&gt;&lt;span style=&quot;font-weight: normal&quot;&gt;VARCHAR(45)&lt;/span&gt;&lt;/div&gt;&lt;div style=&quot;text-align: left&quot;&gt;&lt;br&gt;&lt;/div&gt;" id="8">
                    <mxCell style="rounded=0;whiteSpace=wrap;html=1;fontStyle=1" parent="1" vertex="1">
                        <mxGeometry x="350" y="573" width="140" height="100" as="geometry"/>
                    </mxCell>
                </object>
                <mxCell id="9" value="" style="endArrow=ERoneToMany;html=1;exitX=0;exitY=0.5;exitDx=0;exitDy=0;entryX=1.027;entryY=0.873;entryDx=0;entryDy=0;endFill=0;entryPerimeter=0;" parent="1" source="8" target="5" edge="1">
                    <mxGeometry width="50" height="50" relative="1" as="geometry">
                        <mxPoint x="330" y="643" as="sourcePoint"/>
                        <mxPoint x="240" y="703" as="targetPoint"/>
                    </mxGeometry>
                </mxCell>
                <object label="rol&lt;br&gt;&lt;br&gt;&lt;div style=&quot;text-align: left&quot;&gt;&lt;span&gt;idRol&amp;nbsp;&lt;/span&gt;&lt;span style=&quot;font-weight: normal&quot;&gt;INT PK&lt;/span&gt;&lt;/div&gt;&lt;div style=&quot;text-align: left&quot;&gt;&lt;span&gt;name &lt;/span&gt;&lt;span style=&quot;font-weight: normal&quot;&gt;VARCHAR(100)&lt;/span&gt;&lt;/div&gt;&lt;div style=&quot;text-align: left&quot;&gt;&lt;br&gt;&lt;/div&gt;" id="10">
                    <mxCell style="rounded=0;whiteSpace=wrap;html=1;fontStyle=1" parent="1" vertex="1">
                        <mxGeometry x="350" y="693" width="140" height="100" as="geometry"/>
                    </mxCell>
                </object>
                <mxCell id="11" value="" style="endArrow=ERoneToMany;html=1;exitX=0;exitY=0.5;exitDx=0;exitDy=0;entryX=1.027;entryY=0.964;entryDx=0;entryDy=0;endFill=0;entryPerimeter=0;" parent="1" source="10" target="5" edge="1">
                    <mxGeometry width="50" height="50" relative="1" as="geometry">
                        <mxPoint x="330" y="763" as="sourcePoint"/>
                        <mxPoint x="240" y="823" as="targetPoint"/>
                    </mxGeometry>
                </mxCell>
                <object label="&lt;br&gt;address&lt;br&gt;&lt;br&gt;&lt;div style=&quot;text-align: left&quot;&gt;&lt;span&gt;idAddress&amp;nbsp;&lt;/span&gt;&lt;span style=&quot;font-weight: normal&quot;&gt;INT PK&lt;/span&gt;&lt;/div&gt;&lt;div style=&quot;text-align: left&quot;&gt;&lt;span&gt;name &lt;/span&gt;&lt;span style=&quot;font-weight: normal&quot;&gt;VARCHAR(100)&lt;/span&gt;&lt;/div&gt;&lt;div style=&quot;text-align: left&quot;&gt;&lt;span style=&quot;font-weight: 400&quot;&gt;number INT(100)&lt;/span&gt;&lt;/div&gt;&lt;div style=&quot;text-align: left&quot;&gt;&lt;span style=&quot;font-weight: 400&quot;&gt;description TEXT&lt;/span&gt;&lt;/div&gt;&lt;div style=&quot;text-align: left&quot;&gt;&lt;br&gt;&lt;/div&gt;" id="12">
                    <mxCell style="rounded=0;whiteSpace=wrap;html=1;fontStyle=1" vertex="1" parent="1">
                        <mxGeometry x="37" y="870" width="140" height="100" as="geometry"/>
                    </mxCell>
                </object>
                <object label="users_address&lt;br&gt;&lt;br&gt;&lt;div style=&quot;text-align: left&quot;&gt;&lt;span&gt;idUserAdress&amp;nbsp;&lt;/span&gt;&lt;span style=&quot;font-weight: normal&quot;&gt;INT PK&amp;nbsp;&lt;/span&gt;&lt;/div&gt;&lt;div style=&quot;text-align: left&quot;&gt;idUser &lt;span style=&quot;font-weight: normal&quot;&gt;INT&amp;nbsp;&lt;/span&gt;&lt;span style=&quot;font-weight: 400&quot;&gt;FK&lt;/span&gt;&lt;/div&gt;&lt;div style=&quot;text-align: left&quot;&gt;idAddress &lt;span style=&quot;font-weight: 400&quot;&gt;INT FK&lt;/span&gt;&lt;/div&gt;" id="13">
                    <mxCell style="rounded=0;whiteSpace=wrap;html=1;fontStyle=1" vertex="1" parent="1">
                        <mxGeometry x="32" y="696" width="150" height="100" as="geometry"/>
                    </mxCell>
                </object>
                <mxCell id="14" value="" style="endArrow=ERoneToMany;html=1;endFill=0;" edge="1" parent="1">
                    <mxGeometry width="50" height="50" relative="1" as="geometry">
                        <mxPoint x="99" y="638" as="sourcePoint"/>
                        <mxPoint x="99" y="693" as="targetPoint"/>
                    </mxGeometry>
                </mxCell>
                <mxCell id="17" value="" style="endArrow=ERoneToMany;html=1;exitX=0.5;exitY=0;exitDx=0;exitDy=0;entryX=0.5;entryY=1;entryDx=0;entryDy=0;endFill=0;" edge="1" parent="1" source="12" target="13">
                    <mxGeometry width="50" height="50" relative="1" as="geometry">
                        <mxPoint x="205.68" y="913.2" as="sourcePoint"/>
                        <mxPoint x="99.99999999999994" y="796" as="targetPoint"/>
                    </mxGeometry>
                </mxCell>
                <object label="&lt;br&gt;shopping_cart&lt;br&gt;&lt;div style=&quot;text-align: left&quot;&gt;&lt;span&gt;&lt;br&gt;&lt;/span&gt;&lt;/div&gt;&lt;div style=&quot;text-align: left&quot;&gt;&lt;span&gt;idShopping&amp;nbsp;&lt;/span&gt;&lt;span style=&quot;font-weight: normal&quot;&gt;INT PK&amp;nbsp;&lt;/span&gt;&lt;/div&gt;&lt;div style=&quot;text-align: left&quot;&gt;&lt;span&gt;id_user &lt;/span&gt;&lt;span style=&quot;font-weight: normal&quot;&gt;INT FK&lt;/span&gt;&lt;/div&gt;&lt;div style=&quot;text-align: left&quot;&gt;id_product&lt;span style=&quot;font-weight: normal&quot;&gt;&amp;nbsp;INT FK&lt;/span&gt;&lt;/div&gt;&lt;div style=&quot;text-align: left&quot;&gt;amount&lt;span style=&quot;font-weight: normal&quot;&gt;&amp;nbsp;INT&lt;/span&gt;&lt;/div&gt;&lt;div style=&quot;text-align: left&quot;&gt;&lt;br&gt;&lt;/div&gt;" id="18">
                    <mxCell style="rounded=0;whiteSpace=wrap;html=1;fontStyle=1" vertex="1" parent="1">
                        <mxGeometry x="118" y="233" width="140" height="100" as="geometry"/>
                    </mxCell>
                </object>
                <mxCell id="19" value="" style="endArrow=ERoneToMany;html=1;exitX=0;exitY=0.5;exitDx=0;exitDy=0;entryX=0.5;entryY=0;entryDx=0;entryDy=0;endFill=0;" edge="1" parent="1" target="18">
                    <mxGeometry width="50" height="50" relative="1" as="geometry">
                        <mxPoint x="187.86" y="180" as="sourcePoint"/>
                        <mxPoint x="58" y="231.24" as="targetPoint"/>
                    </mxGeometry>
                </mxCell>
                <mxCell id="20" value="" style="endArrow=ERoneToMany;html=1;endFill=0;entryX=0.75;entryY=0;entryDx=0;entryDy=0;exitX=0.602;exitY=1.005;exitDx=0;exitDy=0;exitPerimeter=0;" edge="1" parent="1" source="18" target="5">
                    <mxGeometry width="50" height="50" relative="1" as="geometry">
                        <mxPoint x="210.5" y="333" as="sourcePoint"/>
                        <mxPoint x="89.5" y="415" as="targetPoint"/>
                    </mxGeometry>
                </mxCell>
                <object label="&lt;br&gt;&lt;br&gt;order_buy&lt;br&gt;&lt;br&gt;&lt;div style=&quot;text-align: left&quot;&gt;&lt;span&gt;idOrder&amp;nbsp;&lt;/span&gt;&lt;span style=&quot;font-weight: normal&quot;&gt;INT PK&lt;/span&gt;&lt;/div&gt;&lt;div style=&quot;text-align: left&quot;&gt;&lt;span&gt;idPayment&amp;nbsp;&lt;/span&gt;&lt;span style=&quot;font-weight: normal&quot;&gt;INT FK&lt;/span&gt;&lt;/div&gt;&lt;div style=&quot;text-align: left&quot;&gt;idAddress&amp;nbsp;&lt;span style=&quot;font-weight: normal&quot;&gt;INT FK&lt;/span&gt;&lt;/div&gt;&lt;div style=&quot;text-align: left&quot;&gt;idUser&amp;nbsp;&lt;span style=&quot;font-weight: normal&quot;&gt;INT FK&lt;/span&gt;&lt;span style=&quot;font-weight: normal&quot;&gt;&lt;br&gt;&lt;/span&gt;&lt;/div&gt;&lt;div style=&quot;text-align: left&quot;&gt;&lt;div&gt;total&amp;nbsp;&lt;span style=&quot;font-weight: normal&quot;&gt;INT&lt;/span&gt;&lt;/div&gt;&lt;div&gt;&lt;br&gt;&lt;/div&gt;&lt;/div&gt;&lt;div style=&quot;text-align: left&quot;&gt;&lt;br&gt;&lt;/div&gt;" id="21">
                    <mxCell style="rounded=0;whiteSpace=wrap;html=1;fontStyle=1" vertex="1" parent="1">
                        <mxGeometry x="350" y="848" width="140" height="100" as="geometry"/>
                    </mxCell>
                </object>
                <object label="&lt;br&gt;method_payment&lt;br&gt;&lt;br&gt;&lt;div style=&quot;text-align: left&quot;&gt;&lt;span&gt;idPeyment&amp;nbsp;&lt;/span&gt;&lt;span style=&quot;font-weight: normal&quot;&gt;INT PK&lt;/span&gt;&lt;/div&gt;&lt;div style=&quot;text-align: left&quot;&gt;&lt;span&gt;name &lt;/span&gt;&lt;span style=&quot;font-weight: normal&quot;&gt;INT&lt;/span&gt;&lt;/div&gt;&lt;div style=&quot;text-align: left&quot;&gt;&lt;br&gt;&lt;/div&gt;" id="22">
                    <mxCell style="rounded=0;whiteSpace=wrap;html=1;fontStyle=1" vertex="1" parent="1">
                        <mxGeometry x="317" y="1021" width="140" height="100" as="geometry"/>
                    </mxCell>
                </object>
                <mxCell id="23" value="" style="endArrow=ERoneToMany;html=1;endFill=0;exitX=0.5;exitY=1;exitDx=0;exitDy=0;entryX=0;entryY=0.25;entryDx=0;entryDy=0;" edge="1" parent="1" target="21">
                    <mxGeometry width="50" height="50" relative="1" as="geometry">
                        <mxPoint x="215" y="633" as="sourcePoint"/>
                        <mxPoint x="215" y="688" as="targetPoint"/>
                    </mxGeometry>
                </mxCell>
                <object label="&lt;br&gt;&lt;br&gt;order_buy_detail&lt;br&gt;&lt;br&gt;&lt;div style=&quot;text-align: left&quot;&gt;&lt;span&gt;idOrderDetail&amp;nbsp;&lt;/span&gt;&lt;span style=&quot;font-weight: normal&quot;&gt;INT PK&lt;/span&gt;&lt;/div&gt;&lt;div style=&quot;text-align: left&quot;&gt;&lt;span&gt;idOrder&amp;nbsp;&lt;/span&gt;&lt;span style=&quot;font-weight: normal&quot;&gt;INT FK&lt;/span&gt;&lt;/div&gt;&lt;div style=&quot;text-align: left&quot;&gt;idProduct&amp;nbsp;&lt;span style=&quot;font-weight: normal&quot;&gt;INT FK&lt;/span&gt;&lt;/div&gt;&lt;div style=&quot;text-align: left&quot;&gt;amount&amp;nbsp;&lt;span style=&quot;font-weight: normal&quot;&gt;INT&amp;nbsp;&lt;/span&gt;&lt;span style=&quot;font-weight: normal&quot;&gt;&lt;br&gt;&lt;/span&gt;&lt;/div&gt;&lt;div style=&quot;text-align: left&quot;&gt;&lt;div&gt;price&amp;nbsp;&lt;span style=&quot;font-weight: normal&quot;&gt;INT&lt;/span&gt;&lt;/div&gt;&lt;div&gt;&lt;br&gt;&lt;/div&gt;&lt;/div&gt;&lt;div style=&quot;text-align: left&quot;&gt;&lt;br&gt;&lt;/div&gt;" id="24">
                    <mxCell style="rounded=0;whiteSpace=wrap;html=1;fontStyle=1" vertex="1" parent="1">
                        <mxGeometry x="561" y="473" width="140" height="100" as="geometry"/>
                    </mxCell>
                </object>
                <mxCell id="25" value="" style="endArrow=ERoneToMany;html=1;endFill=0;entryX=1;entryY=0.5;entryDx=0;entryDy=0;" edge="1" parent="1" source="24" target="21">
                    <mxGeometry width="50" height="50" relative="1" as="geometry">
                        <mxPoint x="525" y="619" as="sourcePoint"/>
                        <mxPoint x="660" y="859" as="targetPoint"/>
                    </mxGeometry>
                </mxCell>
                <mxCell id="26" value="" style="endArrow=ERoneToMany;html=1;exitX=0.5;exitY=0;exitDx=0;exitDy=0;endFill=0;entryX=1;entryY=1;entryDx=0;entryDy=0;" edge="1" parent="1" target="2">
                    <mxGeometry width="50" height="50" relative="1" as="geometry">
                        <mxPoint x="630.5" y="473" as="sourcePoint"/>
                        <mxPoint x="327" y="220" as="targetPoint"/>
                    </mxGeometry>
                </mxCell>
                <mxCell id="27" value="" style="endArrow=ERoneToMany;html=1;endFill=0;entryX=0.5;entryY=0;entryDx=0;entryDy=0;exitX=0.25;exitY=1;exitDx=0;exitDy=0;" edge="1" parent="1" source="21" target="22">
                    <mxGeometry width="50" height="50" relative="1" as="geometry">
                        <mxPoint x="414" y="948" as="sourcePoint"/>
                        <mxPoint x="369" y="1098" as="targetPoint"/>
                    </mxGeometry>
                </mxCell>
                <mxCell id="28" value="" style="endArrow=ERoneToMany;html=1;endFill=0;entryX=1;entryY=0.5;entryDx=0;entryDy=0;" edge="1" parent="1" target="12">
                    <mxGeometry width="50" height="50" relative="1" as="geometry">
                        <mxPoint x="350" y="898" as="sourcePoint"/>
                        <mxPoint x="286" y="1020" as="targetPoint"/>
                    </mxGeometry>
                </mxCell>
            </root>
        </mxGraphModel>
    </diagram>
</mxfile>